<svg xmlns="http://www.w3.org/2000/svg" viewBox="0 0 500 300" width="500" height="300">
  <line x1="250" y1="40" x2="100" y2="120" stroke="#333" stroke-width="2"/>
  <line x1="250" y1="40" x2="200" y2="120" stroke="#333" stroke-width="2"/>
  <line x1="250" y1="40" x2="300" y2="120" stroke="#333" stroke-width="2"/>
  <line x1="250" y1="40" x2="400" y2="120" stroke="#333" stroke-width="2"/>
  
  <line x1="300" y1="120" x2="225" y2="200" stroke="#0056b3" stroke-width="2"/>
  <line x1="300" y1="120" x2="275" y2="200" stroke="#0056b3" stroke-width="2"/>
  <line x1="300" y1="120" x2="325" y2="200" stroke="#0056b3" stroke-width="2"/>
  <line x1="300" y1="120" x2="375" y2="200" stroke="#0056b3" stroke-width="2"/>

  <circle cx="250" cy="40" r="20" fill="#fff" stroke="#333" stroke-width="2"/>
  <text x="250" y="45" font-family="Arial" font-size="14" font-weight="bold" text-anchor="middle">Root</text>
  
  <rect x="80" y="100" width="40" height="40" fill="#fff" stroke="#333" stroke-width="2"/>
  <text x="100" y="125" font-family="Arial" font-size="14" text-anchor="middle">NW</text>
  
  <rect x="180" y="100" width="40" height="40" fill="#fff" stroke="#333" stroke-width="2"/>
  <text x="200" y="125" font-family="Arial" font-size="14" text-anchor="middle">SW</text>
  
  <circle cx="300" cy="120" r="20" fill="#fff" stroke="#0056b3" stroke-width="2"/>
  <text x="300" y="125" font-family="Arial" font-size="14" font-weight="bold" fill="#0056b3" text-anchor="middle">NE</text>
  
  <rect x="380" y="100" width="40" height="40" fill="#fff" stroke="#333" stroke-width="2"/>
  <text x="400" y="125" font-family="Arial" font-size="14" text-anchor="middle">SE</text>

  <rect x="210" y="200" width="30" height="30" fill="#fff" stroke="#0056b3" stroke-width="2"/>
  <text x="225" y="220" font-family="Arial" font-size="10" fill="#0056b3" text-anchor="middle">nw</text>
  
  <rect x="260" y="200" width="30" height="30" fill="#fff" stroke="#0056b3" stroke-width="2"/>
  <text x="275" y="220" font-family="Arial" font-size="10" fill="#0056b3" text-anchor="middle">ne</text>
  
  <rect x="310" y="200" width="30" height="30" fill="#fff" stroke="#0056b3" stroke-width="2"/>
  <text x="325" y="220" font-family="Arial" font-size="10" fill="#0056b3" text-anchor="middle">sw</text>
  
  <rect x="360" y="200" width="30" height="30" fill="#fff" stroke="#0056b3" stroke-width="2"/>
  <text x="375" y="220" font-family="Arial" font-size="10" fill="#0056b3" text-anchor="middle">se</text>
</svg>
