<svg xmlns="http://www.w3.org/2000/svg" viewBox="0 0 400 400" width="400" height="400">
  <defs>
    <marker id="arrow" viewBox="0 0 10 10" refX="9" refY="5" markerWidth="6" markerHeight="6" orient="auto-start-reverse">
      <path d="M 0 0 L 10 5 L 0 10 z" fill="#0056b3"/>
    </marker>
  </defs>

  <rect x="10" y="10" width="380" height="380" fill="#f8f9fa" stroke="#333" stroke-width="2"/>
  
  <line x1="200" y1="10" x2="200" y2="390" stroke="#333" stroke-width="2"/>
  <line x1="10" y1="200" x2="390" y2="200" stroke="#333" stroke-width="2"/>
  
  <rect x="10" y="10" width="190" height="190" fill="rgba(220, 53, 69, 0.2)"/>
  <rect x="200" y="10" width="190" height="190" fill="rgba(220, 53, 69, 0.2)"/>
  
  <text x="105" y="105" font-family="Arial" font-size="20" font-weight="bold" fill="#dc3545" text-anchor="middle">PRUNED (Penuh)</text>
  <text x="295" y="105" font-family="Arial" font-size="20" font-weight="bold" fill="#dc3545" text-anchor="middle">PRUNED (Penuh)</text>

  <circle cx="80" cy="300" r="10" fill="#0056b3"/>
  <text x="80" y="325" font-family="Arial" font-size="14" font-weight="bold" fill="#0056b3" text-anchor="middle">Mahasiswa</text>
  
  <circle cx="80" cy="300" r="180" fill="none" stroke="#0056b3" stroke-width="2" stroke-dasharray="8"/>

  <circle cx="280" cy="250" r="8" fill="#28a745"/>
  <text x="280" y="275" font-family="Arial" font-size="14" font-weight="bold" fill="#28a745" text-anchor="middle">Slot A</text>
  
  <circle cx="340" cy="330" r="8" fill="#28a745"/>
  <text x="340" y="355" font-family="Arial" font-size="14" font-weight="bold" fill="#28a745" text-anchor="middle">Slot B</text>

  <path d="M 90 295 Q 180 250 265 250" fill="none" stroke="#0056b3" stroke-width="3" stroke-dasharray="5" marker-end="url(#arrow)"/>
  <rect x="130" y="240" width="80" height="20" fill="#fff" rx="4"/>
  <text x="170" y="255" font-family="Arial" font-size="12" font-weight="bold" fill="#0056b3" text-anchor="middle">Nearest!</text>
</svg>
